<?xml version="1.0" standalone="no"?>
<!DOCTYPE svg PUBLIC "-//W3C//DTD SVG 20010904//EN"
 "http://www.w3.org/TR/2001/REC-SVG-20010904/DTD/svg10.dtd">
<svg version="1.0" xmlns="http://www.w3.org/2000/svg"
 width="900.000000pt" height="900.000000pt" viewBox="0 0 900.000000 900.000000"
 preserveAspectRatio="xMidYMid meet">

<g transform="translate(0.000000,900.000000) scale(0.100000,-0.100000)"
fill="#000000" stroke="none">
<path d="M4306 8195 c-166 -32 -355 -112 -481 -205 -98 -73 -191 -184 -245
-294 -120 -244 -141 -482 -63 -714 32 -97 62 -156 129 -258 30 -44 54 -83 54
-87 0 -3 -71 -42 -157 -86 -87 -45 -196 -110 -243 -145 -175 -131 -328 -319
-421 -515 -64 -133 -119 -308 -129 -408 -14 -143 -4 -395 19 -490 71 -289 250
-581 460 -753 44 -36 80 -67 80 -70 1 -3 -63 -39 -141 -80 -485 -256 -853
-604 -1136 -1073 -188 -312 -333 -704 -389 -1053 -25 -152 -25 -729 0 -880 19
-120 49 -205 87 -248 l28 -31 244 -6 c133 -3 1359 -5 2723 -5 2465 1 2480 1
2515 21 97 56 140 273 140 715 0 342 -27 529 -116 817 -94 302 -204 537 -370
788 -269 406 -620 722 -1062 955 -78 41 -142 77 -142 80 0 3 21 20 46 39 114
86 239 232 330 385 155 260 211 512 187 834 -10 119 -17 157 -51 259 -79 234
-186 416 -340 575 -118 122 -226 198 -413 293 -82 42 -149 79 -149 83 0 4 23
41 51 82 67 98 122 214 150 320 18 68 23 112 23 220 1 170 -22 270 -99 426
-43 90 -69 127 -131 193 -132 140 -311 242 -523 298 -122 32 -343 41 -465 18z
m550 -375 c89 -44 122 -68 185 -130 103 -102 148 -191 162 -325 33 -311 -77
-515 -354 -661 -77 -41 -136 -93 -145 -129 -16 -66 26 -141 94 -168 22 -9 95
-23 163 -32 218 -30 359 -83 518 -195 101 -72 239 -211 297 -300 199 -307 224
-712 64 -1047 -55 -116 -111 -196 -204 -289 -91 -90 -155 -136 -300 -213 -166
-88 -193 -118 -183 -207 9 -79 33 -96 277 -190 307 -119 593 -303 843 -544
217 -209 390 -440 520 -697 152 -298 231 -564 257 -860 13 -137 9 -660 -5
-700 l-7 -23 -2538 0 -2538 0 -7 23 c-14 39 -18 574 -5 707 27 293 107 558
257 853 131 258 303 488 521 699 261 251 531 421 897 563 178 70 214 97 222
168 11 91 -13 117 -197 216 -198 107 -318 213 -428 380 -199 302 -222 681 -63
1044 81 186 295 397 513 508 101 51 214 83 367 104 68 9 141 23 163 32 68 27
110 102 94 168 -9 36 -68 88 -145 129 -152 80 -250 175 -312 305 -41 83 -57
228 -42 361 22 194 141 347 348 450 l109 55 126 5 c69 3 179 3 246 0 l121 -6
109 -54z"/>
</g>
</svg>
